<svg width="150" height="25" fill="none" xmlns="http://www.w3.org/2000/svg"><g clip-path="url(#a)"><path d="M61.43 20.746v-2.969c.957.335 2.719.625 4.262.625 2.001 0 2.653-.469 2.653-1.853 0-1.183-.435-1.607-2.74-2.188-3.218-.782-4.153-1.697-4.153-4.465 0-3.282 2.022-4.532 5.523-4.532 1.696 0 3.066.268 3.87.559v2.79c-.739-.268-2.478-.558-3.74-.558-1.695 0-2.435.357-2.435 1.651 0 1.027.348 1.34 2.566 1.898 3.61.915 4.392 2.032 4.392 4.933 0 2.902-1.653 4.666-5.806 4.666-1.76 0-3.48-.29-4.392-.559v.002Zm22.31-3.504h-6.133l-1.304 3.84h-3.435L78.5 5.587h4.436l5.588 15.493h-3.5l-1.284-3.84Zm-.957-2.814-1.957-5.87h-.262l-2 5.87h4.218Zm15.938 6.653-3.544-5.648h-1.632v5.648h-3.304V5.588h5.131c4.044 0 5.828 1.339 5.828 4.911 0 2.567-.892 3.974-2.826 4.577l4.24 6.005h-3.892Zm-3.849-8.171c2.218 0 3.045-.447 3.045-2.41 0-1.832-.826-2.233-3.045-2.233h-1.327v4.643h1.327Zm19.026 5.225v2.947h-9.524V5.588h9.22v2.947h-5.914v3.192h5.479v2.836h-5.479v3.572h6.218Zm2.697-12.547h5.371l2.501 8.728h.13l2.61-8.728h5.219V21.08h-3.262V8.891h-.131l-2.913 9.266h-3.305l-2.871-9.265h-.13v12.19h-3.219V5.587Zm28.442 11.654h-6.132l-1.305 3.84h-3.435l5.632-15.494h4.437l5.768 15.493h-3.68l-1.283-3.84h-.002Zm-.957-2.814-1.957-5.87h-.261l-2.001 5.87h4.219Z" fill="#000"/><path d="M38.142 21.314h-3.477v3.57h3.477v-3.57Z" fill="#9CE0F2"/><path d="M43.548 21.314h-3.476v3.57h3.476v-3.57Z" fill="#BC56E2"/><path d="M38.142 16.16h-3.477v3.568h3.477V16.16Z" fill="#586BDD"/><path d="M43.548 16.16h-3.476v3.568h3.476V16.16Z" fill="#F9D026"/><path fill-rule="evenodd" clip-rule="evenodd" d="M61.145 22.807 42.202 3.357 38.93 0l-3.27 3.358-4.893 5.024-11.499-3.164L0 25h3.27L19.267 8.583l5.653 5.801-10.247 10.52h6.815l16.66-17.386.781-.802.782.802 16.756 17.385h6.72l-.022-.02H150v-2.076H61.145Z" fill="#000"/></g><defs><clipPath id="a"><path fill="#fff" d="M0 0h150v25H0z"/></clipPath></defs></svg>